<?xml version="1.0" standalone="no"?>
<!DOCTYPE svg PUBLIC "-//W3C//DTD SVG 20010904//EN"
 "http://www.w3.org/TR/2001/REC-SVG-20010904/DTD/svg10.dtd">
<svg version="1.0" xmlns="http://www.w3.org/2000/svg"
 width="600.000000pt" height="600.000000pt" viewBox="0 0 600.000000 600.000000"
 preserveAspectRatio="xMidYMid meet">
<metadata>
Created by potrace 1.16, written by Peter Selinger 2001-2019
</metadata>
<g transform="translate(0.000000,600.000000) scale(0.100000,-0.100000)"
fill="#000000" stroke="none">
<path d="M2700 3854 c-176 -38 -340 -175 -435 -364 -72 -143 -105 -312 -105
-537 0 -235 31 -396 105 -548 116 -239 298 -355 555 -355 125 0 217 21 319 71
104 51 206 149 271 258 l44 74 21 -84 c64 -253 112 -319 231 -319 58 0 104 22
148 71 65 72 106 185 121 337 l7 72 -36 0 c-33 0 -36 -2 -36 -28 0 -94 -61
-184 -134 -197 -105 -20 -174 55 -230 249 l-25 85 30 117 c16 65 75 321 130
568 55 248 103 461 106 474 l5 22 -161 0 c-89 0 -161 -2 -161 -5 0 -10 -110
-519 -113 -522 -2 -1 -13 30 -26 70 -13 39 -47 122 -77 183 -128 263 -306 362
-554 308z m231 -146 c52 -17 111 -63 153 -118 54 -71 128 -225 179 -375 l44
-130 -37 -180 c-61 -293 -91 -390 -163 -529 -95 -184 -235 -256 -372 -192 -62
28 -98 70 -141 161 -56 119 -75 236 -81 508 -6 264 5 405 42 553 39 153 106
257 190 295 46 21 135 25 186 7z"/>
</g>
</svg>
